<?xml version="1.0" encoding="UTF-8"?>
<svg version="1.1" xmlns="http://www.w3.org/2000/svg" width="975" height="1024">
<path d="M0 0 C2.48345165 3.72517747 2.2817375 6.59464837 2.25878906 10.90527344 C2.26404602 12.11336922 2.26404602 12.11336922 2.26940918 13.34587097 C2.27823123 16.01712602 2.27236909 18.68811708 2.265625 21.359375 C2.26697309 23.22487437 2.26891483 25.09037341 2.27142334 26.95587158 C2.27437654 30.87670213 2.27007651 34.79744173 2.26074219 38.71826172 C2.24944212 43.70411455 2.25584527 48.68974979 2.26788712 53.67559433 C2.27518176 57.53647439 2.27278165 61.39730461 2.26763153 65.25818634 C2.26631099 67.09348833 2.26788582 68.92879506 2.27259064 70.76409149 C2.3309874 99.99112371 -3.39385177 123.98640524 -24.296875 145.42578125 C-40.47674031 161.43478579 -61.22385 172.15707862 -81.13110352 182.72460938 C-82.58214478 183.49708008 -82.58214478 183.49708008 -84.0625 184.28515625 C-84.91972656 184.73769775 -85.77695312 185.19023926 -86.66015625 185.65649414 C-88.92392722 186.95632007 -90.9501651 188.38776698 -93 190 C-92.01644531 190.55945313 -91.03289062 191.11890625 -90.01953125 191.6953125 C-56.52959932 210.95233046 -21.93985743 232.93000459 -9.75 271.6875 C-5.96264421 286.22239432 -5.69321772 301.1603233 -5.734375 316.09765625 C-5.73302157 317.86966505 -5.73107547 319.64167348 -5.72857666 321.41368103 C-5.72565794 325.09524127 -5.72981711 328.7767033 -5.73925781 332.45825195 C-5.75065878 337.12623689 -5.74406778 341.79399185 -5.73211288 346.46196842 C-5.7248126 350.11101447 -5.7272191 353.76000789 -5.73236847 357.40905571 C-5.73368207 359.12827012 -5.73213983 360.84748967 -5.72740936 362.56669807 C-5.70893682 371.16038377 -5.90332328 379.64799134 -6.87597656 388.19311523 C-6.98899927 389.20095991 -6.98899927 389.20095991 -7.10430527 390.22916508 C-9.06540751 405.65937722 -16.08200342 419.22501682 -26 431 C-26.60585938 431.73992187 -27.21171875 432.47984375 -27.8359375 433.2421875 C-42.61079976 450.67049441 -63.88524124 461.80998728 -83.60668945 472.65649414 C-86.10135536 474.05689672 -88.55365363 475.5170607 -91 477 C-90.52433594 477.31710937 -90.04867188 477.63421875 -89.55859375 477.9609375 C-88.019831 478.98677934 -86.48221971 480.01434904 -84.9453125 481.04296875 C-82.82214789 482.45371871 -80.69303477 483.85100637 -78.5546875 485.23828125 C-56.995357 499.29685064 -38.20931156 515.28949373 -24 537 C-23.42507813 537.87785156 -22.85015625 538.75570312 -22.2578125 539.66015625 C-9.56508738 560.16595884 -4.7799701 583.46135736 -4.6875 607.3125 C-4.68388458 608.02498901 -4.68026917 608.73747803 -4.67654419 609.47155762 C-4.65350187 620.76134118 -5.7104005 631.16678077 -9 642 C-9.34130826 643.33131422 -9.6793872 644.66355085 -10 646 C-10.66 646 -11.32 646 -12 646 C-12.23074219 645.48727539 -12.46148438 644.97455078 -12.69921875 644.44628906 C-19.29943942 629.88275867 -26.65493448 617.28476531 -37 605 C-37.66 604.21625 -38.32 603.4325 -39 602.625 C-43.33352516 597.61436154 -47.88285984 593.19867911 -53 589 C-53.51949219 588.56816406 -54.03898437 588.13632812 -54.57421875 587.69140625 C-79.10758538 567.34800785 -107.18990146 552.32321155 -135.44433594 537.82617188 C-138.05424595 536.48573471 -140.6614148 535.14056691 -143.26660156 533.79101562 C-147.1097921 531.80193837 -150.96117253 529.82946933 -154.81762695 527.86624146 C-156.34953951 527.08365069 -157.87903461 526.29630873 -159.40600586 525.50411987 C-161.55836676 524.38901688 -163.71916199 523.29221815 -165.8828125 522.19921875 C-166.52771637 521.86029602 -167.17262024 521.52137329 -167.83706665 521.17218018 C-170.55569254 519.81879916 -172.53974705 518.97236496 -175.60229492 519.15625 C-178.28925024 520.10178687 -180.88024969 521.1352427 -183.48046875 522.30078125 C-184.549021 522.77725098 -185.61757324 523.2537207 -186.71850586 523.74462891 C-187.86327393 524.26202637 -189.00804199 524.77942383 -190.1875 525.3125 C-191.38060791 525.84794434 -192.57371582 526.38338867 -193.80297852 526.93505859 C-197.53948885 528.61421423 -201.27016784 530.30607377 -205 532 C-206.72573242 532.78238037 -206.72573242 532.78238037 -208.48632812 533.58056641 C-243.35132105 549.42324342 -278.2127994 566.28448428 -307 592 C-307.89074219 592.76957031 -308.78148437 593.53914062 -309.69921875 594.33203125 C-318.113391 601.68959994 -325.29274636 609.65455372 -331.6875 618.8125 C-332.14640625 619.44687988 -332.6053125 620.08125977 -333.078125 620.73486328 C-334.5155458 622.77454596 -334.5155458 622.77454596 -336 626 C-335.59546698 628.67870252 -335.59546698 628.67870252 -334 631 C-333.53464844 631.89976562 -333.06929687 632.79953125 -332.58984375 633.7265625 C-303.61085551 684.55968135 -237.92722609 711.99858827 -187 735 C-186.38539917 735.27777283 -185.77079834 735.55554565 -185.13757324 735.84173584 C-176.10441327 739.92306004 -167.05602168 743.96965506 -158 748 C-157.00436035 748.4434375 -156.0087207 748.886875 -154.98291016 749.34375 C-149.99052282 751.56683429 -144.99644337 753.78604718 -140 756 C-140 756.66 -140 757.32 -140 758 C-166.2781718 769.2518027 -192.86122984 779.78973768 -219.4375 790.3125 C-220.76918716 790.84008408 -220.76918716 790.84008408 -222.1277771 791.37832642 C-223.43387436 791.89548721 -223.43387436 791.89548721 -224.76635742 792.4230957 C-225.61322868 792.75954479 -226.46009995 793.09599388 -227.33263397 793.4426384 C-229.25950405 794.20060452 -231.19077313 794.94751972 -233.12704659 795.68113136 C-239.1828096 797.99920262 -245.08464381 800.4758934 -250.95225924 803.23029643 C-281.46889319 817.45654601 -308.06774938 820.53854804 -341.4679718 819.82304382 C-347.19338849 819.7180009 -352.91740903 819.7155767 -358.64379883 819.70288086 C-375.22172283 819.60964421 -391.79845617 819.35834964 -408.375 819.125 C-464.124375 818.568125 -464.124375 818.568125 -521 818 C-521 691.28 -521 564.56 -521 434 C-462.23883661 409.51618192 -387.50172341 415.29756586 -329 438 C-323.43866879 440.30341662 -317.96220622 442.76939244 -312.5234375 445.34765625 C-309.49770868 447.0707647 -309.49770868 447.0707647 -308 447 C-308.845625 446.23816406 -309.69125 445.47632813 -310.5625 444.69140625 C-330.95150126 426.20220708 -343.61005623 406.98518262 -345.1197834 378.76063347 C-345.31481724 372.77408372 -345.30587757 366.78597337 -345.30078125 360.796875 C-345.30468074 358.86460277 -345.30901792 356.93233137 -345.31376648 355.00006104 C-345.32118207 350.96925059 -345.32097192 346.9385278 -345.31567383 342.90771484 C-345.30989115 337.7934926 -345.32680425 332.67963393 -345.3500185 327.56547165 C-345.36489574 323.57924371 -345.36560864 319.59310047 -345.36250877 315.60684967 C-345.36301518 313.72378064 -345.36812161 311.84070597 -345.37832069 309.95766449 C-345.54539679 274.80021896 -334.42695506 247.81078842 -309.59472656 222.56298828 C-305.65833711 218.70494093 -301.36979858 215.34629737 -297 212 C-296.02933594 211.21367187 -295.05867187 210.42734375 -294.05859375 209.6171875 C-253.58692842 177.30063871 -201.74088776 158.63059627 -154.16015625 139.45068359 C-121.98804525 126.48176577 -90.75509064 112.1291401 -63 91 C-62.42491699 90.56623047 -61.84983398 90.13246094 -61.25732422 89.68554688 C-52.73711713 83.23330615 -44.74445336 76.3612945 -37 69 C-36.35675781 68.40960938 -35.71351563 67.81921875 -35.05078125 67.2109375 C-25.64700355 58.31132503 -18.40656963 47.16122109 -12 36 C-11.52820313 35.19433594 -11.05640625 34.38867188 -10.5703125 33.55859375 C-5.00275342 23.33987507 -2.26910861 11.34554304 0 0 Z M-185.8984375 232.89453125 C-186.56144363 233.19753143 -187.22444977 233.50053162 -187.907547 233.81271362 C-190.06787602 234.80316243 -192.22150166 235.80729617 -194.375 236.8125 C-195.87384723 237.50487106 -197.37295422 238.19668005 -198.87231445 238.88793945 C-202.58234463 240.60197836 -206.28636909 242.32855892 -209.98822021 244.06018066 C-211.80521372 244.909004 -213.62440191 245.75312551 -215.44384766 246.59667969 C-245.46883018 260.52476334 -275.28478469 276.32425835 -299.7421875 298.93359375 C-301.75844722 300.77892488 -303.82885946 302.51271923 -305.9375 304.25 C-313.88926869 311.20377343 -324.26800896 322.03266591 -328 332 C-327.08235539 336.90939865 -324.50212794 340.42646212 -321.4375 344.25 C-320.76388428 345.10404419 -320.76388428 345.10404419 -320.07666016 345.9753418 C-307.55301497 361.70163224 -293.26411451 376.16143665 -277 388 C-276.33355469 388.48952148 -275.66710937 388.97904297 -274.98046875 389.48339844 C-265.88163609 396.13871342 -256.60064116 402.32767334 -246.82421875 407.94091797 C-245.05413519 408.96857087 -243.30785614 410.02867531 -241.5625 411.09765625 C-229.77036703 418.1787641 -217.08611251 423.36819355 -204.4372406 428.69445801 C-200.62223692 430.30278613 -196.82956047 431.95297836 -193.05078125 433.64453125 C-192.18364502 434.02730225 -191.31650879 434.41007324 -190.4230957 434.80444336 C-188.86337248 435.4935503 -187.30807652 436.19281302 -185.75854492 436.90454102 C-179.85198786 439.47173139 -175.95733081 438.81991159 -170.10375977 436.59228516 C-168.63025873 435.99790146 -167.15960878 435.39641627 -165.69140625 434.7890625 C-164.89614029 434.46514526 -164.10087433 434.14122803 -163.2815094 433.80749512 C-160.70522521 432.7544557 -158.13350531 431.69085779 -155.5625 430.625 C-154.68551453 430.26307556 -153.80852905 429.90115112 -152.90496826 429.52825928 C-108.0388729 410.98820281 -61.40577938 386.28885626 -31 347.25 C-30.42306396 346.51628174 -29.84612793 345.78256348 -29.25170898 345.02661133 C-28.71489502 344.32173584 -28.17808105 343.61686035 -27.625 342.890625 C-27.14289063 342.26188477 -26.66078125 341.63314453 -26.1640625 340.98535156 C-24.7689663 338.60596349 -24.25425569 336.74487951 -24 334 C-25.30462452 331.29499871 -26.60851346 328.98537247 -28.25 326.5 C-28.70383057 325.79657471 -29.15766113 325.09314941 -29.62524414 324.3684082 C-47.82208115 296.77865002 -74.37740745 278.4673539 -103 263 C-104.0916748 262.40276123 -105.18334961 261.80552246 -106.30810547 261.19018555 C-115.00389513 256.46295679 -123.83068522 252.20173235 -132.875 248.1875 C-134.21610682 247.58865596 -135.55708774 246.98952991 -136.89794922 246.39013672 C-139.60965255 245.17907058 -142.3229109 243.9715757 -145.03710938 242.76611328 C-148.82987236 241.0794757 -152.61056411 239.36725792 -156.390625 237.65234375 C-158.63518731 236.64271912 -160.87996697 235.6335775 -163.125 234.625 C-164.1547998 234.15473389 -165.18459961 233.68446777 -166.24560547 233.19995117 C-167.19838379 232.77560791 -168.15116211 232.35126465 -169.1328125 231.9140625 C-169.95668457 231.5423291 -170.78055664 231.1705957 -171.62939453 230.78759766 C-177.08146311 228.97623069 -180.89261435 230.53891164 -185.8984375 232.89453125 Z M-493 455 C-493 565.55 -493 676.1 -493 790 C-405.22 790 -317.44 790 -227 790 C-230.16662618 787.62503036 -232.67534786 786.07759115 -236.19140625 784.43359375 C-237.20920166 783.95325684 -238.22699707 783.47291992 -239.27563477 782.97802734 C-240.90263306 782.21546631 -240.90263306 782.21546631 -242.5625 781.4375 C-281.82944863 762.78096316 -331.38171782 736.87425833 -347 693 C-351.68220124 678.22080698 -352.16907874 664.0414217 -352.203125 648.65625 C-352.20736607 647.34994881 -352.20736607 647.34994881 -352.21169281 646.01725769 C-352.22660464 641.40473132 -352.23588356 636.79223555 -352.24023438 632.1796875 C-352.24569546 627.47465685 -352.26969671 622.76991898 -352.29820633 618.06497955 C-352.31705372 614.39440149 -352.32204997 610.72389074 -352.32357025 607.05326843 C-352.32654972 605.32173571 -352.33441319 603.59020275 -352.34775543 601.85871887 C-352.57860349 569.58851728 -343.94583957 544.77928946 -322 521 C-321.32324219 520.25234375 -320.64648438 519.5046875 -319.94921875 518.734375 C-311.04930558 509.35802108 -298.57230385 498.78615192 -287 493 C-287 492.34 -287 491.68 -287 491 C-339.96503828 463.07405798 -339.96503828 463.07405798 -398 450 C-398.87712646 449.91532471 -399.75425293 449.83064941 -400.65795898 449.7434082 C-410.37814073 448.88107838 -420.06231118 448.80087488 -429.8125 448.8125 C-431.09883835 448.81290787 -431.09883835 448.81290787 -432.41116333 448.81332397 C-463.10587802 448.72842982 -463.10587802 448.72842982 -493 455 Z " fill="#007EFE" transform="translate(568,24)"/>
<path d="M0 0 C17.29829498 13.16299621 17.29829498 13.16299621 19.6171875 17.80078125 C19.07940674 17.97617432 18.54162598 18.15156738 17.98754883 18.33227539 C2.53927327 23.42016899 -11.03151956 28.85604124 -23.3828125 39.80078125 C-23.98351562 40.31898438 -24.58421875 40.8371875 -25.203125 41.37109375 C-63.78031477 77.07742289 -67.87107759 142.01830336 -74.61328125 190.7734375 C-74.80831255 192.17973559 -75.00336063 193.58603136 -75.19842529 194.99232483 C-76.35661135 203.35219507 -76.35661135 203.35219507 -77.48431396 211.71621704 C-79.39131319 226.05096211 -81.50961645 240.27937727 -84.41796875 254.4453125 C-84.6543959 255.60106781 -84.89082306 256.75682312 -85.13441467 257.94760132 C-88.86999235 275.49991915 -94.68353684 292.11008972 -103.3828125 307.80078125 C-104.30320312 309.52748047 -104.30320312 309.52748047 -105.2421875 311.2890625 C-117.25234096 333.20014825 -133.73638124 355.16308872 -153.3828125 370.80078125 C-154.3109375 371.55488281 -155.2390625 372.30898438 -156.1953125 373.0859375 C-164.48520282 379.71317354 -173.2438794 385.41797923 -182.3828125 390.80078125 C-182.96691895 391.14850586 -183.55102539 391.49623047 -184.15283203 391.85449219 C-197.94160296 399.96088175 -213.21211476 405.83643447 -228.3828125 410.80078125 C-223.01493981 410.80619943 -217.64917961 410.77146378 -212.28173828 410.703125 C-210.46475384 410.68521422 -208.6476361 410.67735006 -206.83056641 410.68066406 C-189.01909619 410.70037792 -174.46027685 406.62786937 -158.7578125 398.17578125 C-157.31015503 397.40754028 -157.31015503 397.40754028 -155.83325195 396.6237793 C-143.84054508 390.09290004 -133.26149359 381.95770411 -123.3984375 372.54296875 C-121.3828125 370.80078125 -121.3828125 370.80078125 -119.2421875 369.80859375 C-116.85133318 368.51271052 -116.52511268 367.22872909 -115.3828125 364.80078125 C-114.11317277 363.46696193 -112.79413087 362.179475 -111.4453125 360.92578125 C-97.62992938 347.3986806 -86.90112137 330.52073129 -77.3828125 313.80078125 C-76.98980957 313.11338867 -76.59680664 312.42599609 -76.19189453 311.71777344 C-55.48375661 275.07580428 -46.83290435 234.95510699 -37.83270264 194.31689453 C-19.39362993 111.16538617 -19.39362993 111.16538617 11.0390625 91.328125 C28.34992431 81.07275081 48.12707598 79.43852546 67.51708984 84.21875 C84.58689341 88.94955815 99.02411971 98.51701687 111.6171875 110.80078125 C112.78121094 111.90679688 112.78121094 111.90679688 113.96875 113.03515625 C119.47110054 118.36252038 119.47110054 118.36252038 120.6171875 121.80078125 C119.43576172 122.22037109 119.43576172 122.22037109 118.23046875 122.6484375 C105.00007395 127.51784908 93.62934556 133.94662535 82.6171875 142.80078125 C81.88757813 143.37570312 81.15796875 143.950625 80.40625 144.54296875 C74.66756089 149.28362497 70.13955767 154.91595473 65.6171875 160.80078125 C65.02035156 161.57035156 64.42351562 162.33992187 63.80859375 163.1328125 C55.67445731 174.15992126 49.93860227 186.29360055 45.390625 199.16796875 C45.00543701 200.24848007 44.62024902 201.32899139 44.22338867 202.44224548 C39.37352936 216.15928474 34.94201633 230.01431859 30.4921875 243.86499023 C9.91640106 307.81156959 -16.75028126 375.95106413 -79.91308594 408.56689453 C-81.39861717 409.32021887 -82.89000414 410.06198235 -84.3828125 410.80078125 C-60.64246563 411.27088529 -60.64246563 411.27088529 -39.3828125 401.80078125 C-38.18057112 401.02207159 -36.97743636 400.24473958 -35.7734375 399.46875 C-9.09024211 381.75597357 9.18066956 354.88772693 23.6171875 326.80078125 C24.05095703 325.95918457 24.48472656 325.11758789 24.93164062 324.25048828 C32.78688835 308.83103258 38.96736549 292.91197653 44.92645264 276.68200684 C65.13481346 221.6442674 65.13481346 221.6442674 83.6171875 202.80078125 C84.22949219 202.16398438 84.84179688 201.5271875 85.47265625 200.87109375 C96.75654215 190.04433755 110.97688287 186.37827076 126.16015625 186.43505859 C142.70021998 186.78391056 156.74950432 192.16494094 168.39257812 204.04467773 C179.6171875 216.04423117 179.6171875 216.04423117 179.6171875 222.80078125 C178.67359375 223.15269531 177.73 223.50460937 176.7578125 223.8671875 C126.15248989 243.14572122 106.76736538 295.07122315 85.375 340.6875 C67.87757904 377.99528993 45.01051241 416.48441973 4.6171875 431.80078125 C1.64130181 432.85285547 -1.35127396 433.79748814 -4.3828125 434.67578125 C-5.03290283 434.8670459 -5.68299316 435.05831055 -6.3527832 435.25537109 C-19.72453375 438.79651297 -33.71841899 439.09658101 -47.46083069 439.04129028 C-49.10892425 439.04216503 -50.75701753 439.04392094 -52.40510935 439.04646862 C-56.88176023 439.05089329 -61.35831352 439.04300662 -65.834952 439.03291249 C-70.68200566 439.024209 -75.5290546 439.02720299 -80.37611389 439.02871704 C-88.75669197 439.02976156 -97.13723871 439.02353044 -105.51780891 439.01224136 C-117.63443829 438.99593031 -129.75105264 438.99077264 -141.86769181 438.98826538 C-161.53004855 438.98389704 -181.19238863 438.97061138 -200.85473633 438.95166016 C-219.9455558 438.93327901 -239.03637072 438.91913346 -258.12719727 438.91064453 C-259.30558122 438.91011908 -260.48396516 438.90959364 -261.69805772 438.90905227 C-267.61014912 438.90644204 -273.52224056 438.90391466 -279.43433201 438.90142846 C-328.41717036 438.88072279 -377.39999061 438.84552081 -426.3828125 438.80078125 C-426.3828125 438.14078125 -426.3828125 437.48078125 -426.3828125 436.80078125 C-415.20165813 432.16080161 -403.93076953 427.87200765 -392.5078125 423.86328125 C-265.40309805 381.52737585 -265.40309805 381.52737585 -176.28125 286.953125 C-173.36614115 280.74736761 -171.22661986 274.40832882 -169.3828125 267.80078125 C-169.02574219 266.558125 -168.66867187 265.31546875 -168.30078125 264.03515625 C-162.10245544 241.11283803 -161.92425768 217.16489987 -162.11711502 193.59054184 C-162.13851046 190.64000458 -162.1474495 187.68947591 -162.15659809 184.7388792 C-162.22534828 163.22769905 -162.52667968 141.71890597 -163.11425781 120.21533203 C-163.57082118 102.49549293 -163.34238145 84.72516257 -161.1328125 67.11328125 C-161.00495361 66.08348145 -160.87709473 65.05368164 -160.74536133 63.99267578 C-156.84675358 34.69774615 -146.3671213 6.55465255 -122.3828125 -12.19921875 C-83.24224466 -39.77212832 -35.80099245 -26.4807115 0 0 Z " fill="#8D8D8D" transform="translate(747.3828125,403.19921875)"/>
<path d="M0 0 C2.51219184 2.26258304 4.35163234 4.85245335 6.25878906 7.63085938 C11.57928979 15.37509725 17.4617589 22.26012988 24 29 C24.8046167 29.84328857 24.8046167 29.84328857 25.62548828 30.70361328 C33.84493815 39.30282405 42.40501365 46.97128781 52 54 C52.6693457 54.49242187 53.33869141 54.98484375 54.02832031 55.4921875 C63.12410367 62.14413858 72.40325147 68.32990834 82.17578125 73.94091797 C83.94586481 74.96857087 85.69214386 76.02867531 87.4375 77.09765625 C99.76851818 84.50270191 113.09839325 89.8594264 126.31884766 95.44287109 C130.74814129 97.31646406 135.16707965 99.21354162 139.58520508 101.11328125 C143.38773218 102.74783215 147.19374588 104.37414973 151 106 C148.08014297 108.36278184 145.26788924 109.88202992 141.80078125 111.3125 C140.25269775 111.95771606 140.25269775 111.95771606 138.67333984 112.6159668 C137.5642627 113.07269775 136.45518555 113.52942871 135.3125 114 C132.95645472 114.98429823 130.60100072 115.97001276 128.24609375 116.95703125 C127.0432373 117.46057129 125.84038086 117.96411133 124.60107422 118.48291016 C110.27363599 124.5188899 95.99944294 130.68577368 82.19970703 137.85888672 C79.59567276 139.20974756 76.98311005 140.54354716 74.37109375 141.87890625 C72.3508033 142.91779578 70.33128044 143.95817925 68.3125 145 C67.32306396 145.51054932 66.33362793 146.02109863 65.31420898 146.54711914 C58.79589461 149.95227391 52.62385442 153.62112933 46.62109375 157.8671875 C44 159 44 159 41.1875 158.47265625 C37.22715651 156.64293873 33.39373287 154.6469995 29.5625 152.5625 C-1.07230249 136.25263638 -33.98232513 121.03389041 -69 118 C-69.87712646 117.91532471 -70.75425293 117.83064941 -71.65795898 117.7434082 C-81.37814073 116.88107838 -91.06231118 116.80087488 -100.8125 116.8125 C-102.09883835 116.81290787 -102.09883835 116.81290787 -103.41116333 116.81332397 C-121.83606177 116.8401271 -139.97524774 117.59874613 -158.05078125 121.4140625 C-161 122 -161 122 -164 122 C-164 232.55 -164 343.1 -164 457 C-76.88 456.67 10.24 456.34 100 456 C85.645 449.07 85.645 449.07 71 442 C36.39959752 424.35147256 -5.24309501 398.65533379 -19 360 C-22.83996033 347.89715472 -23.65465126 338.44408784 -20.9375 326.0625 C-20.71852051 325.05993164 -20.49954102 324.05736328 -20.27392578 323.02441406 C-15.10375768 300.609648 -15.10375768 300.609648 -8 294 C-7.69932617 294.50748779 -7.39865234 295.01497559 -7.08886719 295.5378418 C-0.33805247 306.83129657 6.67710445 316.71817447 16 326 C16.59941406 326.64710938 17.19882812 327.29421875 17.81640625 327.9609375 C49.74624599 362.05144309 100.20531747 383.1233249 142 402 C142.61460083 402.27777283 143.22920166 402.55554565 143.86242676 402.84173584 C152.89558673 406.92306004 161.94397832 410.96965506 171 415 C171.99563965 415.4434375 172.9912793 415.886875 174.01708984 416.34375 C179.00947718 418.56683429 184.00355663 420.78604718 189 423 C189 423.66 189 424.32 189 425 C162.7218282 436.2518027 136.13877016 446.78973768 109.5625 457.3125 C108.23081284 457.84008408 108.23081284 457.84008408 106.8722229 458.37832642 C106.00149139 458.72310028 105.13075989 459.06787415 104.23364258 459.4230957 C102.96333569 459.92776934 102.96333569 459.92776934 101.66736603 460.4426384 C99.74049595 461.20060452 97.80922687 461.94751972 95.87295341 462.68113136 C89.8171904 464.99920262 83.91535619 467.4758934 78.04774076 470.23029643 C47.53110681 484.45654601 20.93225062 487.53854804 -12.4679718 486.82304382 C-18.19338849 486.7180009 -23.91740903 486.7155767 -29.64379883 486.70288086 C-46.22172283 486.60964421 -62.79845617 486.35834964 -79.375 486.125 C-135.124375 485.568125 -135.124375 485.568125 -192 485 C-192 358.28 -192 231.56 -192 101 C-133.23883661 76.51618192 -58.50172341 82.29756586 0 105 C5.56133121 107.30341662 11.03779378 109.76939244 16.4765625 112.34765625 C19.50229132 114.0707647 19.50229132 114.0707647 21 114 C20.154375 113.23816406 19.30875 112.47632813 18.4375 111.69140625 C-1.00791249 94.05787434 -14.54564398 75.12343295 -16 48 C-16.193871 40.66673198 -16.1295031 33.3338603 -16 26 C-15.67 26 -15.34 26 -15 26 C-14.67 29.96 -14.34 33.92 -14 38 C-13.69707031 36.69546875 -13.39414063 35.3909375 -13.08203125 34.046875 C-7.31081557 9.7477541 -7.31081557 9.7477541 0 0 Z " fill="#8C8D8D" transform="translate(239,357)"/>
<path d="M0 0 C14.3641579 13.27110751 23.16016866 31.69793547 24.26171875 51.23046875 C24.94144019 72.79190874 19.57617884 91.62632865 4.875 107.875 C4.20984375 108.63296875 3.5446875 109.3909375 2.859375 110.171875 C-9.64369038 123.60109337 -27.5221566 132.50771783 -45.9453125 133.2109375 C-68.3639729 133.53420713 -87.03196507 129.29166022 -104.125 113.875 C-104.80949219 113.28332031 -105.49398438 112.69164062 -106.19921875 112.08203125 C-120.03019307 99.33797044 -128.4343916 80.14106652 -129.41015625 61.51171875 C-130.01635854 41.43585205 -124.90432709 23.64202832 -112.125 7.875 C-111.58230469 7.16859375 -111.03960937 6.4621875 -110.48046875 5.734375 C-98.88688005 -8.59541347 -81.10568658 -17.07032026 -63.125 -19.875 C-39.29921543 -21.96230164 -17.98752381 -15.91934104 0 0 Z " fill="#000000" transform="translate(447.125,598.125)"/>
<path d="M0 0 C2.51976717 1.3705005 4.90375907 2.76928074 7.3125 4.3125 C8.01036621 4.7554541 8.70823242 5.1984082 9.42724609 5.65478516 C31.59610979 19.94204881 51.66672632 36.68260239 66 59 C66.61617187 59.94230469 67.23234375 60.88460937 67.8671875 61.85546875 C80.52093871 82.24206792 85.22057195 105.60116833 85.3125 129.3125 C85.31611542 130.02498901 85.31973083 130.73747803 85.32345581 131.47155762 C85.34649813 142.76134118 84.2895995 153.16678077 81 164 C80.65869174 165.33131422 80.3206128 166.66355085 80 168 C79.34 168 78.68 168 78 168 C77.65388672 167.23091309 77.65388672 167.23091309 77.30078125 166.44628906 C70.70056058 151.88275867 63.34506552 139.28476531 53 127 C52.01 125.824375 52.01 125.824375 51 124.625 C46.66647484 119.61436154 42.11714016 115.19867911 37 111 C36.48050781 110.56816406 35.96101562 110.13632812 35.42578125 109.69140625 C0.21115893 80.49096662 -42.30167182 61.23199732 -83 41 C-83 40.01 -83 39.02 -83 38 C-82.175 37.61779297 -81.35 37.23558594 -80.5 36.84179688 C-58.5977937 26.73504835 -58.5977937 26.73504835 -37 16 C-36.09636719 15.53319824 -35.19273437 15.06639648 -34.26171875 14.58544922 C-29.28521963 12.01086934 -24.31314141 9.42779275 -19.34765625 6.83203125 C-18.44805176 6.36361816 -17.54844727 5.89520508 -16.62158203 5.41259766 C-14.88705376 4.47797477 -13.17323714 3.50374975 -11.48388672 2.48974609 C-10.70416504 2.02262207 -9.92444336 1.55549805 -9.12109375 1.07421875 C-8.44361084 0.65100342 -7.76612793 0.22778809 -7.06811523 -0.20825195 C-4.32308722 -1.25914628 -2.78333115 -0.84534486 0 0 Z " fill="#8C8D8D" transform="translate(478,502)"/>
<path d="M0 0 C4.6322902 2.24607721 8.96733167 4.95585488 13.35668945 7.63891602 C14.37859375 8.26306396 15.40049805 8.88721191 16.45336914 9.53027344 C48.26755342 29.14669845 76.53284318 51.24682677 85.60668945 89.26391602 C87.44773365 97.92276257 86.65555555 105.59384653 84.41918945 114.07641602 C84.08081055 115.38799683 84.08081055 115.38799683 83.7355957 116.72607422 C81.01240123 126.94845459 77.00240326 136.17156423 71.60668945 145.26391602 C67.35053606 143.84519822 66.25493898 140.70907436 64.10668945 137.01391602 C59.30568717 129.06025556 53.89549818 122.0858311 47.60668945 115.26391602 C46.80618164 114.39250977 46.00567383 113.52110352 45.1809082 112.62329102 C29.65540079 96.4625337 10.18254742 84.84250782 -9.39331055 74.26391602 C-10.48498535 73.66667725 -11.57666016 73.06943848 -12.70141602 72.45410156 C-21.39755164 67.72668473 -30.22540467 63.46933485 -39.26831055 59.45141602 C-40.60728913 58.85125998 -41.94607166 58.25066639 -43.28466797 57.6496582 C-49.80458143 54.72754927 -56.34019459 51.84237071 -62.8894043 48.98657227 C-64.04263184 48.48295166 -65.19585937 47.97933105 -66.3840332 47.46044922 C-68.5547147 46.51518331 -70.72748906 45.57470505 -72.90258789 44.63964844 C-73.86503418 44.22175049 -74.82748047 43.80385254 -75.8190918 43.37329102 C-76.65867432 43.01203125 -77.49825684 42.65077148 -78.36328125 42.27856445 C-80.39331055 41.26391602 -80.39331055 41.26391602 -82.39331055 39.26391602 C-72.95833179 34.41815653 -63.41458298 29.86185089 -53.76831055 25.45141602 C-45.37809365 21.60458301 -37.03022303 17.6924538 -28.76831055 13.57641602 C-27.42627563 12.90835938 -27.42627563 12.90835938 -26.05712891 12.22680664 C-21.84552517 10.1020898 -17.71037242 7.90361241 -13.6472168 5.50610352 C-12.91390137 5.07515381 -12.18058594 4.6442041 -11.42504883 4.20019531 C-10.07283858 3.39388202 -8.73039121 2.57085678 -7.40063477 1.72802734 C-2.99378392 -0.92076492 -2.99378392 -0.92076492 0 0 Z " fill="#8C8D8D" transform="translate(474.393310546875,213.736083984375)"/>
<path d="M0 0 C7.37283811 7.4196003 9.39616507 16.77889274 9.72265625 26.984375 C9.41162477 37.03069168 7.05500535 45.96708522 0.8828125 53.99609375 C-1.1588257 55.82636235 -3.22980408 56.52012539 -5.77734375 57.484375 C-3.94822825 61.94444772 -2.11444285 66.4025856 -0.27734375 70.859375 C-0.00611694 71.51765289 0.26510986 72.17593079 0.54455566 72.85415649 C4.21827604 81.76035565 7.96391127 90.62249226 11.98632812 99.37841797 C14.22265625 104.28511425 14.22265625 104.28511425 14.22265625 106.484375 C8.97834827 107.99303275 3.58019488 107.93317688 -1.83984375 108.171875 C-2.94134766 108.23181641 -4.04285156 108.29175781 -5.17773438 108.35351562 C-6.23283203 108.40056641 -7.28792969 108.44761719 -8.375 108.49609375 C-9.82144897 108.56509888 -9.82144897 108.56509888 -11.29711914 108.63549805 C-13.77734375 108.484375 -13.77734375 108.484375 -16.77734375 106.484375 C-17.84863519 104.071234 -18.76456547 101.73319534 -19.625 99.24609375 C-20.01104652 98.16942192 -20.01104652 98.16942192 -20.40489197 97.07099915 C-21.2260474 94.77454699 -22.0332171 92.47346573 -22.83984375 90.171875 C-23.6531646 87.88219739 -24.46926739 85.59352423 -25.2855072 83.30488586 C-25.79209661 81.88108122 -26.29640939 80.45646387 -26.79811096 79.03092957 C-27.78800373 76.22189603 -28.79516102 73.44187909 -29.94702148 70.69458008 C-30.77734375 68.484375 -30.77734375 68.484375 -30.77734375 65.484375 C-32.75734375 65.979375 -32.75734375 65.979375 -34.77734375 66.484375 C-34.70515625 67.34933594 -34.63296875 68.21429687 -34.55859375 69.10546875 C-33.61494189 81.91030025 -33.70756284 94.64468705 -33.77734375 107.484375 C-43.34734375 107.484375 -52.91734375 107.484375 -62.77734375 107.484375 C-62.77210693 105.02057373 -62.76687012 102.55677246 -62.76147461 100.01831055 C-62.74469881 91.76030516 -62.73377828 83.50229889 -62.72553158 75.24428082 C-62.72037367 70.25097927 -62.71340982 65.25769557 -62.7019043 60.2644043 C-62.65261509 38.31525328 -62.65204125 16.41122796 -63.77734375 -5.515625 C-8.99048284 -7.66660954 -8.99048284 -7.66660954 0 0 Z M-33.77734375 17.484375 C-34.10734375 26.064375 -34.43734375 34.644375 -34.77734375 43.484375 C-24.53227371 42.66139492 -24.53227371 42.66139492 -21.15234375 38.984375 C-18.42764387 34.03037521 -18.28056562 30.11748419 -18.77734375 24.484375 C-20.00956834 21.52703599 -20.96876913 20.11326637 -23.46484375 18.171875 C-26.65330349 17.10441464 -26.65330349 17.10441464 -33.77734375 17.484375 Z " fill="#000000" transform="translate(356.77734375,882.515625)"/>
<path d="M0 0 C19.8 0 39.6 0 60 0 C60 20 60 20 59 24 C49.1 24 39.2 24 29 24 C29 30.27 29 36.54 29 43 C38.57 43 48.14 43 58 43 C58 54.63793103 58 54.63793103 57.625 60.0625 C57.55539062 61.16722656 57.48578125 62.27195312 57.4140625 63.41015625 C57.27742188 64.26480469 57.14078125 65.11945313 57 66 C54.28598706 67.35700647 52.15153684 67.1123861 49.1171875 67.09765625 C47.95058594 67.09443359 46.78398437 67.09121094 45.58203125 67.08789062 C44.35871094 67.07951172 43.13539063 67.07113281 41.875 67.0625 C40.64394531 67.05798828 39.41289062 67.05347656 38.14453125 67.04882812 C35.09633361 67.03701341 32.04816084 67.0190775 29 67 C29 73.93 29 80.86 29 88 C31.97 87.505 31.97 87.505 35 87 C37.16207099 86.85950381 39.32675912 86.7557747 41.4921875 86.68359375 C42.69101562 86.64169922 43.88984375 86.59980469 45.125 86.55664062 C46.3625 86.51732422 47.6 86.47800781 48.875 86.4375 C50.76605469 86.37272461 50.76605469 86.37272461 52.6953125 86.30664062 C55.79677423 86.20090898 58.89831145 86.09881429 62 86 C62.63728996 89.45491202 63.13241886 92.65396247 62.9140625 96.1640625 C62.87023437 96.89367187 62.82640625 97.62328125 62.78125 98.375 C62.7296875 99.1175 62.678125 99.86 62.625 100.625 C62.58117187 101.37523437 62.53734375 102.12546875 62.4921875 102.8984375 C62.26756575 106.4175116 61.85845523 109.56617908 61 113 C40.87 113 20.74 113 0 113 C0 75.71 0 38.42 0 0 Z " fill="#000000" transform="translate(219,877)"/>
<path d="M0 0 C1 1 1 1 1.03759766 3.26904297 C0.99683105 4.25018066 0.95606445 5.23131836 0.9140625 6.2421875 C0.87023437 7.30824219 0.82640625 8.37429688 0.78125 9.47265625 C0.7296875 10.59542969 0.678125 11.71820312 0.625 12.875 C0.58117187 13.99003906 0.53734375 15.10507812 0.4921875 16.25390625 C0.12921507 24.6123548 0.12921507 24.6123548 -1 28 C-5.05765352 26.05119657 -8.82953716 23.6958185 -12.66015625 21.33984375 C-17.48323337 18.57804834 -21.94560559 18.598106 -27.375 19.3125 C-27.91125 19.539375 -28.4475 19.76625 -29 20 C-30.21448067 23.643442 -31.08461677 27.27546695 -30 31 C-25.95374735 34.96606776 -21.60065028 37.43562209 -16.5625 39.9375 C-6.7545944 45.01901999 0.36945964 50.4129678 4.11328125 61.2109375 C6.93717313 73.27778825 5.8937805 86.48655936 -0.3203125 97.296875 C-5.59509049 104.96403863 -12.84761968 110.1775641 -22 112 C-34.3089511 113.67279064 -45.86016069 113.11135621 -57.390625 108.29296875 C-59.69330339 106.4430014 -59.59228614 104.89032293 -60 102 C-60.01500294 100.08687255 -59.97087828 98.17269307 -59.87890625 96.26171875 C-59.83056641 95.19501953 -59.78222656 94.12832031 -59.73242188 93.02929688 C-59.67634766 91.92650391 -59.62027344 90.82371094 -59.5625 89.6875 C-59.51029297 88.56537109 -59.45808594 87.44324219 -59.40429688 86.28710938 C-59.2749801 83.52443291 -59.14002857 80.76215082 -59 78 C-56.79977303 79.07893514 -54.71050935 80.17950325 -52.625 81.47265625 C-45.85595478 85.57236072 -39.97356961 87.51217089 -32 87 C-28.48627205 85.84895119 -26.83154503 85.04846983 -24.5625 82.1875 C-23.75425008 79.04430586 -24.0490155 77.10654936 -25 74 C-28.64106266 69.75660542 -32.3962085 67.5217461 -37.3125 65.125 C-48.30688372 59.44618725 -54.35096104 53.80888294 -59 42 C-59.875 38.4375 -59.875 38.4375 -60 35 C-60.04898438 34.19304688 -60.09796875 33.38609375 -60.1484375 32.5546875 C-60.55903935 21.46843753 -58.23010314 11.58795177 -51 3 C-38.46574833 -10.23059899 -14.71624593 -8.51993186 0 0 Z " fill="#000000" transform="translate(201,880)"/>
<path d="M0 0 C11.31690578 9.73586748 16.30649286 23.59999305 18.1875 38 C18.50517895 42.89899865 18.56932159 47.77905257 18.5625 52.6875 C18.56195618 53.34852722 18.56141235 54.00955444 18.56085205 54.69061279 C18.49762037 71.41463297 15.8545236 88.66299302 3.953125 101.47265625 C-5.12528383 109.32588159 -15.0255517 111.86083886 -26.8125 112 C-36.410611 111.25424749 -45.49702288 107.36805663 -51.8125 100 C-52.29203125 99.51015625 -52.7715625 99.0203125 -53.265625 98.515625 C-64.71396455 86.37344669 -66.38048461 69.0708358 -66.25 53.125 C-66.24170166 51.81015625 -66.23340332 50.4953125 -66.22485352 49.140625 C-65.93975397 32.74486467 -62.56982113 15.83449563 -50.9375 3.4375 C-36.82539064 -9.26067933 -15.82887045 -11.14287093 0 0 Z M-41.20703125 15.91796875 C-50.59806081 28.09660319 -50.99480126 48.0925684 -49.31640625 62.640625 C-48.16037972 71.44989487 -46.8636395 79.48378343 -41.8125 87 C-41.44382812 87.58910156 -41.07515625 88.17820312 -40.6953125 88.78515625 C-37.44110988 93.35226131 -33.04741662 95.44793929 -27.8125 97 C-20.82653178 98.14926279 -15.57108013 95.74522416 -9.75 92.0625 C-0.77839579 83.95447267 1.54091888 70.38716281 2.33544922 58.85205078 C3.03910746 43.36106703 2.12266894 26.64476048 -7.8125 14 C-13.78918405 8.48306088 -19.01054154 7.58320874 -26.9453125 7.7578125 C-33.14362448 8.28137564 -37.05256756 11.56174303 -41.20703125 15.91796875 Z " fill="#000000" transform="translate(549.8125,881)"/>
<path d="M0 0 C0.33 15.84 0.66 31.68 1 48 C9.68375745 34.5986263 9.68375745 34.5986263 18.25 21.125 C18.75031738 20.33689941 19.25063477 19.54879883 19.76611328 18.73681641 C21.93375693 15.31787992 24.08072745 11.89871501 26.1015625 8.390625 C26.68679688 7.39546875 27.27203125 6.4003125 27.875 5.375 C28.34679687 4.53710938 28.81859375 3.69921875 29.3046875 2.8359375 C31.70329498 0.23836719 33.52269083 0.25019664 37 0 C39.12411996 -0.06460219 41.25002905 -0.08611079 43.375 -0.0625 C44.96441406 -0.04896484 44.96441406 -0.04896484 46.5859375 -0.03515625 C47.38257813 -0.02355469 48.17921875 -0.01195312 49 0 C47.60077427 3.88254417 45.7785913 7.04197548 43.453125 10.4453125 C42.73962891 11.49750977 42.02613281 12.54970703 41.29101562 13.63378906 C40.91533447 14.18474243 40.53965332 14.7356958 40.15258789 15.30334473 C38.22240153 18.14465592 36.32386637 21.00696166 34.421875 23.8671875 C33.64598388 25.03135035 32.8699416 26.19541247 32.09375 27.359375 C31.51560547 28.2265918 31.51560547 28.2265918 30.92578125 29.11132812 C21 44 21 44 18.74438477 47.25463867 C16.8098766 49.73887286 16.8098766 49.73887286 17.04296875 51.99609375 C23.88555893 66.32363972 33.21860444 79.64262744 41.84765625 92.9296875 C42.48687012 93.9196875 43.12608398 94.9096875 43.78466797 95.9296875 C45.03082421 97.85855957 46.28352239 99.78322459 47.54345703 101.703125 C48.1104834 102.58226562 48.67750977 103.46140625 49.26171875 104.3671875 C50.01908325 105.52903564 50.01908325 105.52903564 50.79174805 106.71435547 C52.08211365 109.155334 52.59546548 111.28087934 53 114 C49.95349368 114.24432377 46.92658981 114.42155414 43.875 114.5625 C43.0190625 114.63791016 42.163125 114.71332031 41.28125 114.79101562 C37.6696839 114.91603137 35.06717637 114.9922676 32.33398438 112.45092773 C30.69574257 110.0462228 29.35353442 107.57620226 28 105 C27.03457709 103.36397123 26.06873414 101.72816669 25.09384155 100.09776306 C23.28491168 97.06046186 21.52064288 93.99722516 19.75 90.9375 C13.70119961 80.48767588 7.404174 70.2466784 1 60 C1 77.82 1 95.64 1 114 C-4.61 114 -10.22 114 -16 114 C-16 76.71 -16 39.42 -16 1 C-11 0 -11 0 0 0 Z " fill="#000000" transform="translate(434,876)"/>
<path d="M0 0 C0 15.84 0 31.68 0 48 C2.165625 44.7 4.33125 41.4 6.5625 38 C7.28953125 36.89446777 8.0165625 35.78893555 8.765625 34.64990234 C12.3233173 29.20941709 15.78726531 23.74134044 19.125 18.1640625 C19.78556396 17.06964844 20.44612793 15.97523438 21.12670898 14.84765625 C22.40042388 12.72720769 23.65826334 10.59712802 24.89868164 8.45703125 C25.47996826 7.49410156 26.06125488 6.53117188 26.66015625 5.5390625 C27.16168213 4.68521973 27.66320801 3.83137695 28.17993164 2.95166016 C30.63329452 0.32091799 32.47743373 0.26185703 36 0 C38.12411996 -0.06460219 40.25002905 -0.08611079 42.375 -0.0625 C43.96441406 -0.04896484 43.96441406 -0.04896484 45.5859375 -0.03515625 C46.38257813 -0.02355469 47.17921875 -0.01195312 48 0 C46.76232056 4.24056753 45.28775406 7.32822463 42.6015625 10.82421875 C37.51069647 17.62470397 32.66180088 24.57344489 27.88720703 31.59936523 C26.86918596 33.08925239 25.84296085 34.57356318 24.80908203 36.05249023 C23.29807369 38.21605492 21.81469933 40.39634337 20.3359375 42.58203125 C19.86948822 43.23839066 19.40303894 43.89475006 18.92245483 44.57099915 C16.8292075 47.72372836 15.88707927 49.35277512 16.54956055 53.14990234 C17.91732343 55.83754144 19.29279097 58.44966936 20.87109375 61.01953125 C21.43997314 61.95095947 22.00885254 62.8823877 22.5949707 63.84204102 C23.20300537 64.82229248 23.81104004 65.80254395 24.4375 66.8125 C25.06422607 67.83206787 25.69095215 68.85163574 26.33666992 69.90209961 C32.60279559 80.0573799 39.05277177 90.09219385 45.6796875 100.015625 C46.1027417 100.6562085 46.5257959 101.29679199 46.96166992 101.95678711 C47.75350623 103.15550207 48.55266904 104.34942389 49.3605957 105.53735352 C51.48071992 108.75988358 52 109.99158885 52 114 C48.98974413 114.35504026 46.02121354 114.60884783 43 114.8125 C42.16082031 114.92142578 41.32164062 115.03035156 40.45703125 115.14257812 C37.53989684 115.28956552 35.70482731 115.13566485 33 114 C30.07331698 110.63738399 28.07414713 106.89739342 26.03869629 102.96322632 C24.24891932 99.5803922 22.2450266 96.3258379 20.2734375 93.046875 C19.45955396 91.67269348 18.64706349 90.29768599 17.8359375 88.921875 C17.43084961 88.23544922 17.02576172 87.54902344 16.60839844 86.84179688 C15.78207571 85.44038494 14.95623392 84.03868933 14.13085938 82.63671875 C12.90978524 80.56377714 11.68555018 78.49272761 10.4609375 76.421875 C10.10139984 75.80914734 9.74186218 75.19641968 9.37142944 74.56512451 C6.41302785 69.56908312 3.23592305 64.85388458 0 60 C0 77.82 0 95.64 0 114 C-5.28 114 -10.56 114 -16 114 C-17 113 -17 113 -17.12304783 111.12780666 C-17.12212604 110.30280194 -17.12120424 109.47779722 -17.12025452 108.62779236 C-17.12231651 107.21215248 -17.12231651 107.21215248 -17.12442017 105.76791382 C-17.12082489 104.72422638 -17.11722961 103.68053894 -17.11352539 102.60522461 C-17.11367142 101.51267868 -17.11381744 100.42013275 -17.1139679 99.29447937 C-17.11326822 95.66374767 -17.10547329 92.03306654 -17.09765625 88.40234375 C-17.09579226 85.89270557 -17.09436827 83.38306702 -17.09336853 80.87342834 C-17.08993348 74.93065407 -17.08204273 68.98789616 -17.07201904 63.04513031 C-17.05976253 55.61798075 -17.05437792 48.19082895 -17.04882812 40.76367188 C-17.03808811 27.50910527 -17.02120082 14.25455379 -17 1 C-12 0 -12 0 0 0 Z " fill="#000000" transform="translate(662,876)"/>
<path d="M0 0 C1.10408203 0.01353516 1.10408203 0.01353516 2.23046875 0.02734375 C4.0287888 0.05069856 5.82693911 0.08656164 7.625 0.125 C7.85779663 1.04587906 8.09059326 1.96675812 8.33044434 2.9155426 C10.5640117 11.75049138 12.79840393 20.58523122 15.03353119 29.4197855 C16.18159906 33.95773681 17.32941178 38.49575229 18.4765625 43.03393555 C19.58628618 47.42398333 20.6967146 51.81385232 21.80764771 56.20359421 C22.24834611 57.94532481 22.68883687 59.68710797 23.12911987 61.42894363 C25.41170874 70.4577751 27.70868013 79.48216395 30.06640625 88.49169922 C30.35170574 89.58466073 30.35170574 89.58466073 30.64276886 90.69970226 C31.52738086 94.08803351 32.41641132 97.47505674 33.31481934 100.85975647 C33.62149536 102.03130783 33.92817139 103.20285919 34.24414062 104.40991211 C34.51246704 105.42395615 34.78079346 106.43800018 35.05725098 107.48277283 C35.625 110.125 35.625 110.125 35.625 114.125 C30.015 114.125 24.405 114.125 18.625 114.125 C17.24959432 109.99878295 16.08707529 106.12969586 15.1171875 101.921875 C14.72080078 100.20484375 14.72080078 100.20484375 14.31640625 98.453125 C14.04699219 97.27234375 13.77757812 96.0915625 13.5 94.875 C13.22285156 93.67875 12.94570313 92.4825 12.66015625 91.25 C10.625 82.38754618 10.625 82.38754618 10.625 80.125 C-4.72 80.62 -4.72 80.62 -20.375 81.125 C-22.5954327 90.86137098 -22.5954327 90.86137098 -24.80224609 100.60083008 C-25.08148926 101.81150146 -25.36073242 103.02217285 -25.6484375 104.26953125 C-25.93122559 105.51065674 -26.21401367 106.75178223 -26.50537109 108.03051758 C-27.375 111.125 -27.375 111.125 -29.375 114.125 C-32.00197064 114.34637393 -34.38393964 114.40662025 -37 114.3125 C-37.70640625 114.29896484 -38.4128125 114.28542969 -39.140625 114.27148438 C-40.88574128 114.2361104 -42.63046608 114.18230221 -44.375 114.125 C-39.20099945 93.81228651 -33.81823018 73.56724211 -28.23657227 53.36303711 C-26.94662111 48.69248473 -25.65955174 44.02114054 -24.3744812 39.34924316 C-23.66917709 36.78604156 -22.95861535 34.22448198 -22.24539185 31.66345215 C-20.71778508 26.15443568 -19.23508579 20.65223354 -17.95458984 15.08007812 C-17.74327927 14.18569031 -17.53196869 13.29130249 -17.31425476 12.36981201 C-16.93915265 10.75677194 -16.58479018 9.13869042 -16.25666809 7.51544189 C-15.76245117 5.41308594 -15.76245117 5.41308594 -14.375 2.125 C-9.59168373 -0.11000664 -5.15528831 -0.12119123 0 0 Z M-5.375 18.125 C-6.94819238 24.31636965 -8.51400951 30.50957054 -10.07470703 36.70410156 C-10.60653663 38.81130194 -11.14005474 40.91807691 -11.67529297 43.02441406 C-12.44422331 46.05163145 -13.20707352 49.08032548 -13.96875 52.109375 C-14.32966736 53.52207672 -14.32966736 53.52207672 -14.69787598 54.96331787 C-14.91810425 55.84392883 -15.13833252 56.72453979 -15.36523438 57.63183594 C-15.6583551 58.79099518 -15.6583551 58.79099518 -15.95739746 59.97357178 C-16.50203225 62.41418807 -16.50203225 62.41418807 -16.375 66.125 C-8.785 66.125 -1.195 66.125 6.625 66.125 C5.92426317 59.21650312 5.92426317 59.21650312 4.68530273 52.52319336 C4.5051915 51.74306381 4.32508026 50.96293427 4.13951111 50.15916443 C3.94780838 49.3525386 3.75610565 48.54591278 3.55859375 47.71484375 C3.36024429 46.86193253 3.16189484 46.0090213 2.95753479 45.13026428 C2.33070221 42.4398499 1.69673372 39.75117815 1.0625 37.0625 C0.63298809 35.22472043 0.20394723 33.3868307 -0.22460938 31.54882812 C-1.26930303 27.07292793 -2.32039426 22.59857463 -3.375 18.125 C-4.035 18.125 -4.695 18.125 -5.375 18.125 Z " fill="#000000" transform="translate(887.375,875.875)"/>
<path d="M0 0 C3.41882663 12.11667832 6.64870754 24.26814694 9.72265625 36.4765625 C10.15415439 38.18375067 10.58583477 39.89089279 11.01768494 41.59799194 C12.14080041 46.03977085 13.261381 50.48218529 14.38140869 54.92474365 C15.51368971 59.41378788 16.64861406 63.90216369 17.78320312 68.390625 C21.53965526 83.25606182 25.28765644 98.1234791 29 113 C23.6251615 115.68741925 17.00925213 114 11 114 C8.36 103.11 5.72 92.22 3 81 C-7.23 80.67 -17.46 80.34 -28 80 C-28.66 83.63 -29.32 87.26 -30 91 C-30.78194301 94.88695699 -31.63604436 98.75552595 -32.5 102.625 C-32.71269531 103.61628906 -32.92539062 104.60757813 -33.14453125 105.62890625 C-33.35464844 106.56863281 -33.56476562 107.50835938 -33.78125 108.4765625 C-33.96751953 109.32299316 -34.15378906 110.16942383 -34.34570312 111.04150391 C-35 113 -35 113 -37 114 C-39.37402501 114.07116382 -41.75000677 114.08409085 -44.125 114.0625 C-46.04699219 114.04896484 -46.04699219 114.04896484 -48.0078125 114.03515625 C-48.99523437 114.02355469 -49.98265625 114.01195312 -51 114 C-50.34939454 108.64711351 -49.19994456 103.60541187 -47.76269531 98.4128418 C-47.53649506 97.58241867 -47.3102948 96.75199554 -47.07723999 95.89640808 C-46.33156637 93.16289178 -45.57989504 90.4310641 -44.828125 87.69921875 C-44.30308694 85.77946128 -43.7784146 83.85960376 -43.25408936 81.93965149 C-41.87225873 76.88375814 -40.48529016 71.829288 -39.09729004 66.77508545 C-37.70224408 61.69143827 -36.31235664 56.60638147 -34.921875 51.52148438 C-30.31210959 34.67235916 -25.68626003 17.82802836 -21 1 C-13.9405503 -0.06759862 -7.12421039 -0.06784962 0 0 Z M-12 16 C-13.71402196 22.63729975 -15.42244634 29.27602184 -17.12695312 35.91577148 C-17.70768951 38.17521928 -18.28971516 40.4343361 -18.87304688 42.69311523 C-19.71041141 45.93647873 -20.54315973 49.18099716 -21.375 52.42578125 C-21.63748535 53.43836502 -21.8999707 54.45094879 -22.17041016 55.49421692 C-22.41065918 56.43496567 -22.6509082 57.37571442 -22.8984375 58.3449707 C-23.21820557 59.58740288 -23.21820557 59.58740288 -23.54443359 60.85493469 C-24.10387266 63.12360679 -24.10387266 63.12360679 -24 66 C-16.08 66 -8.16 66 0 66 C-3.22640396 49.2226994 -7.05024192 32.61829074 -11 16 C-11.33 16 -11.66 16 -12 16 Z " fill="#000000" transform="translate(767,876)"/>
<path d="M0 0 C0.33 37.62 0.66 75.24 1 114 C-8.9 114 -18.8 114 -29 114 C-29.94912342 111.15262973 -30.12361832 109.41326346 -30.12025452 106.46321106 C-30.12162918 105.53353012 -30.12300385 104.60384918 -30.12442017 103.64599609 C-30.12082489 102.62820068 -30.11722961 101.61040527 -30.11352539 100.56176758 C-30.11367142 99.48843674 -30.11381744 98.4151059 -30.1139679 97.30924988 C-30.1132701 93.75432325 -30.10548386 90.19944874 -30.09765625 86.64453125 C-30.0957916 84.18259205 -30.09436792 81.72065247 -30.09336853 79.25871277 C-30.08954706 72.77319314 -30.07971991 66.28769585 -30.06866455 59.80218506 C-30.05844249 53.18648582 -30.0538692 46.57078298 -30.04882812 39.95507812 C-30.03809734 26.97004255 -30.02121706 13.98502246 -30 1 C-27.81304846 0.8262847 -25.62538259 0.66156671 -23.4375 0.5 C-21.61025391 0.36078125 -21.61025391 0.36078125 -19.74609375 0.21875 C-13.17063916 -0.08431622 -6.58243513 0 0 0 Z " fill="#000000" transform="translate(77,876)"/>
<path d="M0 0 C0 37.62 0 75.24 0 114 C-9.9 114 -19.8 114 -30 114 C-30 76.71 -30 39.42 -30 1 C-20.01171184 0.41245364 -10.00555401 0 0 0 Z " fill="#000000" transform="translate(126,876)"/>
<path d="M0 0 C0 4.95 0 9.9 0 15 C-8.25 15 -16.5 15 -25 15 C-24.89171875 21.06955078 -24.89171875 21.06955078 -24.78125 27.26171875 C-24.68570706 32.73694908 -24.59225218 38.21221338 -24.5 43.6875 C-24.48812275 44.39221687 -24.4762455 45.09693375 -24.46400833 45.82300568 C-24.08287871 68.55033497 -23.86487609 91.26915628 -24 114 C-29.61 114 -35.22 114 -41 114 C-41 81.33 -41 48.66 -41 15 C-48.92 15 -56.84 15 -65 15 C-65.09765625 4.94140625 -65.09765625 4.94140625 -65 2 C-63.19950755 0.19950755 -60.46193285 0.76245315 -58.02734375 0.68359375 C-56.74923828 0.64161865 -55.47113281 0.59964355 -54.15429688 0.55639648 C-52.74871025 0.51632927 -51.34311086 0.47670775 -49.9375 0.4375 C-49.23391357 0.41632111 -48.53032715 0.39514221 -47.80541992 0.37332153 C-31.86988544 -0.10264511 -15.94101367 -0.0953917 0 0 Z " fill="#000000" transform="translate(855,876)"/>
<path d="M0 0 C0 32.34 0 64.68 0 98 C11.55 98.33 23.1 98.66 35 99 C35 103.95 35 108.9 35 114 C17.84 114 0.68 114 -17 114 C-17 76.71 -17 39.42 -17 1 C-12 0 -12 0 0 0 Z " fill="#000000" transform="translate(599,876)"/>
</svg>
